<svg xmlns="http://www.w3.org/2000/svg" width="430" height="430" style="width:100%;height:100%;transform:translate3d(0,0,0);content-visibility:visible" viewBox="0 0 430 430"><defs><clipPath id="j"><path d="M0 0h430v430H0z"/></clipPath><clipPath id="k"><path d="M0 0h430v430H0z"/></clipPath><clipPath id="f"><path d="M0 0h430v430H0z"/></clipPath><clipPath id="g"><path d="M0 0h430v430H0z"/></clipPath><filter id="a" width="100%" height="100%" x="0%" y="0%" filterUnits="objectBoundingBox"><feComponentTransfer in="SourceGraphic"><feFuncA tableValues="1.0 0.0" type="table"/></feComponentTransfer></filter><filter id="c" width="100%" height="100%" x="0%" y="0%" filterUnits="objectBoundingBox"><feComponentTransfer in="SourceGraphic"><feFuncA tableValues="1.0 0.0" type="table"/></feComponentTransfer></filter><filter id="m" width="300%" height="300%" x="-100%" y="-100%"><feGaussianBlur result="filter_result_0" stdDeviation="52.5 52.5"/></filter><mask id="i" mask-type="alpha"><g filter="url(#a)"><path fill="#fff" d="M0 0h430v430H0z" opacity="0"/><use xmlns:ns1="http://www.w3.org/1999/xlink" ns1:href="#b"/></g></mask><mask id="h" mask-type="alpha"><g filter="url(#c)"><path fill="#fff" d="M0 0h430v430H0z" opacity="0"/><use xmlns:ns2="http://www.w3.org/1999/xlink" ns2:href="#d"/></g></mask><mask id="l" mask-type="alpha"><use xmlns:ns3="http://www.w3.org/1999/xlink" ns3:href="#e"/></mask><g id="e" clip-path="url(#f)" style="display:block"><g clip-path="url(#g)" mask="url(#h)" style="display:block"><g fill-opacity="0" stroke-linecap="round" stroke-linejoin="round" stroke-width="12.95" style="display:block"><path stroke="#08A88A" stroke-opacity="0" d="M159.363 206.064a100.63 100.63 0 0 1-13.09-11.055l-86.218-86.384m313.59.015-86.224 86.374a100.369 100.369 0 0 1-8.478 7.587" class="secondary"/><path stroke="#121331" d="m60.04 108.625 130.665 130.917c14.425 14.454 37.851 14.455 52.278.003L373.63 108.669" class="primary"/><path stroke="#121331" d="M57.802 105.91v210.84h318.344V105.939l-318.344-.03z" class="primary"/></g><g mask="url(#i)" style="display:block"><path fill-opacity="0" stroke="#121331" stroke-linecap="round" stroke-linejoin="round" stroke-width="12.95" d="M219.092 195.92c26.688.417 53.232 9.478 73.564 27.18 0-.003 78.662 68.471 78.662 68.471m-307.1-1.328 77.609-67.292c21.292-18.463 49.356-27.469 77.265-27.032" class="primary"/></g></g><path fill-opacity="0" stroke="#08A88A" stroke-width="3.5" d="M0-18.625c10.28 0 18.625 8.346 18.625 18.625 0 10.28-8.346 18.625-18.625 18.625-10.28 0-18.625-8.346-18.625-18.625 0-10.28 8.346-18.625 18.625-18.625z" class="secondary" style="display:block" transform="matrix(3.7 0 0 3.7 338.487 302.413)"/><path fill-opacity="0" stroke="#08A88A" stroke-linecap="round" stroke-linejoin="round" stroke-width="3.5" d="m23.805 26.493 5.695 5.695 13.502-13.546" class="secondary" style="display:block" transform="matrix(3.7 0 0 3.7 215 213.613)"/></g><g id="b" style="display:block"><path fill="#121331" d="M123.412 130.986c-24.497-.6-30.365 13.029-13.096 30.414l76.168 76.675c17.27 17.385 44.952 17.036 61.777-.78l64.828-68.64c16.825-17.816 10.596-32.767-13.9-33.366l-175.777-4.303z" class="primary"/><path fill-opacity="0" stroke="#08A88A" stroke-width="0" d="M123.412 130.986c-24.497-.6-30.365 13.029-13.096 30.414l76.168 76.675c17.27 17.385 44.952 17.036 61.777-.78l64.828-68.64c16.825-17.816 10.596-32.767-13.9-33.366l-175.777-4.303z" class="secondary"/></g><path id="d" fill="#121331" d="M338.505 233.5c38 0 68.894 30.895 68.894 68.931 0 38-30.895 68.894-68.894 68.894-38.036 0-68.93-30.895-68.93-68.894 0-38.036 30.894-68.93 68.93-68.93z" class="primary" style="display:block"/></defs><g clip-path="url(#j)"><g clip-path="url(#k)" mask="url(#l)" style="display:block"><g filter="url(#m)" transform="rotate(-94 238.762 -16.565) scale(2.4)"><g class="design"><path fill="#4BE1EC" d="M0-250c137.975 0 250 112.025 250 250S137.975 250 0 250-250 137.975-250 0-137.975-250 0-250z" class="primary"/></g><g class="design"><path fill="#CB5EEE" d="M113.242-295.384c97.478 0 176.5 79.022 176.5 176.5s-79.022 176.5-176.5 176.5c-43.948 0-74.396-34.057-105.29-60.631-37.631-32.369-71.21-62.338-71.21-115.869 0-97.478 79.022-176.5 176.5-176.5z" class="secondary"/></g></g></g></g></svg>